<?xml version="1.0" encoding="iso-8859-1"?>
<!-- Generator: Adobe Illustrator 19.0.0, SVG Export Plug-In . SVG Version: 6.00 Build 0)  -->
<svg version="1.1" id="Capa_1" xmlns="http://www.w3.org/2000/svg" xmlns:xlink="http://www.w3.org/1999/xlink" x="0px" y="0px"
	 viewBox="0 0 512 512" style="enable-background:new 0 0 512 512;" xml:space="preserve">
<polygon style="fill:#F2F2F2;" points="512,255.995 467.243,304.24 486.688,367.12 425.365,391.056 415.616,456.165 
	349.995,451.227 312.96,505.627 256,472.624 199.029,505.627 161.995,451.227 96.363,456.144 86.624,391.045 25.312,367.099 
	44.768,304.229 0,255.995 44.768,207.76 25.312,144.891 86.635,120.933 96.384,55.835 162.005,60.773 199.04,6.373 256,39.376 
	312.971,6.373 350.005,60.784 415.637,55.856 425.376,120.955 486.688,144.891 467.243,207.771 "/>
<path style="fill:#4CDBC4;" d="M349.707,191.344L349.707,191.344c-4.021-5.877-12.085-7.211-17.856-3.029
	c-40.736,29.493-76.384,64.981-106.219,105.781l-44.085-44.085c-4.907-4.917-12.864-4.917-17.781,0l0,0
	c-4.907,4.917-4.907,12.875,0,17.792l54.613,54.603c5.568,5.568,14.827,4.725,19.275-1.771
	c29.92-43.691,66.592-81.333,109.109-112.064C352.256,204.603,353.536,196.955,349.707,191.344"/>
<path style="fill:#CDD6E0;" d="M256,425.509c-93.077,0-168.8-75.723-168.8-168.8c0-93.067,75.733-168.8,168.8-168.8
	s168.8,75.744,168.8,168.8C424.8,349.787,349.077,425.509,256,425.509 M256,98.565c-87.2,0-158.133,70.933-158.133,158.133
	S168.8,414.843,256,414.843s158.133-70.933,158.133-158.133S343.2,98.565,256,98.565"/>
<g>
</g>
<g>
</g>
<g>
</g>
<g>
</g>
<g>
</g>
<g>
</g>
<g>
</g>
<g>
</g>
<g>
</g>
<g>
</g>
<g>
</g>
<g>
</g>
<g>
</g>
<g>
</g>
<g>
</g>
</svg>
