<?xml version="1.0" standalone="no"?><!DOCTYPE svg PUBLIC "-//W3C//DTD SVG 1.1//EN" "http://www.w3.org/Graphics/SVG/1.1/DTD/svg11.dtd"><svg t="1509685826815" class="icon" style="" viewBox="0 0 1024 1024" version="1.1" xmlns="http://www.w3.org/2000/svg" p-id="1979" xmlns:xlink="http://www.w3.org/1999/xlink" width="200" height="200"><defs><style type="text/css"></style></defs><path d="M121.2 706.8h783.5c15.2 0 28.3-5.4 39.2-16.3 10.9-10.9 16.4-24.1 16.4-39.6s-5.5-28.8-16.4-39.7c-10.9-10.9-24.1-16.4-39.2-16.4h-5c-10.6-75.3-41.1-141.9-91.5-199.7-50.4-57.8-112-97.3-184.9-118.5v-1c1.3-6.6 2-11.5 2-14.9 0-31-10.9-57.3-32.8-78.8s-48.4-32.2-79.6-32.2c-31.1 0-57.5 10.7-79 32.2-21.5 21.5-32.3 47.8-32.3 78.8 0 3.3 0.3 8.6 1 15.9-72.9 21.2-134.6 60.6-185 118.5-50.4 57.8-80.9 124.4-91.5 199.7h-5c-7.3 0-14.4 1.5-21.4 4.5-7 3-12.9 6.9-18 11.9-5 4.9-8.9 10.9-11.9 17.9-3 6.9-4.5 14.4-4.5 22.3 0 15.2 5.5 28.2 16.4 39.1 11.2 10.8 24.2 16.3 39.5 16.3z m391.7-501.6c15.2 0 28.3 5.4 39.3 16.3 10.9 10.9 16.4 24 16.4 39.1v3l-1 0.9c-9.2-1.3-18.5-2.3-27.8-3-8.9-0.6-17.9-1-26.9-1-8.6 0-17.6 0.3-26.8 1-9.3 0.7-18.6 1.7-27.8 3l-1-0.9v-3c0-15.2 5.5-28.2 16.4-39.1 10.9-10.8 24-16.3 39.2-16.3zM277.3 503.6c17.9-29.1 40.6-54.2 68.1-75.3 27.3-21.1 58.6-36.6 92-45.6 1.4-0.7 2.7-1 4-1 2-0.6 3.7-1 5-1 8 0 14.8 2.8 20.4 8.5 5.6 5.6 8.5 12.4 8.5 20.3 0 4.6-1 8.9-3 12.9-2 3.9-4.9 7.3-8.5 9.9-3.6 2.7-7.4 4.3-11.4 4.9-17.5 5.1-34.4 12.3-50.2 21.3-15.5 8.9-29.8 19.5-42.8 31.7-12.7 12-23.9 25.5-33.3 40.2-1.4 3.3-3.4 6.4-6 8.9-2.6 2.6-5.6 4.6-8.9 6-3.3 1.3-7 2-11 2-8 0-14.6-2.6-19.9-7.9-5.3-5.3-8-11.9-8-19.8 0-6 1.7-11.3 5-16z m627.4 258.7H121.2c-15.2 0-28.3 5.5-39.2 16.4-10.9 10.9-16.4 24.1-16.4 39.6S71.1 847.1 82 858c11 10.9 24 16.3 39.2 16.3h783.5c15.2 0 28.3-5.4 39.2-16.3 10.9-10.9 16.4-24.1 16.4-39.7 0-15.5-5.4-28.7-16.4-39.6-10.9-10.9-24-16.4-39.2-16.4z m0 0" p-id="1980" fill="#fe6f22"></path></svg>