<?xml version="1.0" encoding="iso-8859-1"?>
<!-- Generator: Adobe Illustrator 19.0.0, SVG Export Plug-In . SVG Version: 6.00 Build 0)  -->
<svg xmlns="http://www.w3.org/2000/svg" xmlns:xlink="http://www.w3.org/1999/xlink" version="1.1" id="Capa_1" x="0px" y="0px" viewBox="0 0 511.999 511.999" style="enable-background:new 0 0 511.999 511.999;" xml:space="preserve" width="512px" height="512px">
<g>
	<g>
		<path d="M510.022,195.258c-4.73-14.575-17.097-24.997-32.273-27.198l-128.472-18.633L291.829,33.243    C285.045,19.523,271.316,11,256,11c-15.317,0-29.046,8.523-35.83,22.243l-57.447,116.184L34.251,168.06    c-15.176,2.201-27.543,12.623-32.273,27.198c-4.725,14.56-0.842,30.239,10.134,40.918l92.94,90.425L83.113,454.274    c-2.59,15.075,3.489,30.031,15.865,39.033c12.397,9.017,28.531,10.193,42.105,3.07L256,436.074l114.917,60.303    c13.735,7.207,29.857,5.84,42.107-3.071c12.376-9.002,18.454-23.959,15.863-39.032l-21.939-127.673l92.94-90.425    C510.864,225.497,514.747,209.819,510.022,195.258z M371.507,305.273c-4.724,4.596-6.88,11.226-5.764,17.722l23.7,137.93    l-124.151-65.148c-5.818-3.053-12.766-3.053-18.585,0l-124.152,65.149l23.701-137.93c1.117-6.496-1.04-13.126-5.764-17.722    L40.127,207.626l138.736-20.122c6.511-0.944,12.141-5.031,15.057-10.928l62.079-125.552l62.08,125.551    c2.916,5.897,8.545,9.984,15.056,10.928l138.736,20.122L371.507,305.273z" fill="#ccd1d9"/>
	</g>
</g>
<g>
</g>
<g>
</g>
<g>
</g>
<g>
</g>
<g>
</g>
<g>
</g>
<g>
</g>
<g>
</g>
<g>
</g>
<g>
</g>
<g>
</g>
<g>
</g>
<g>
</g>
<g>
</g>
<g>
</g>
</svg>
